<?xml version="1.0" standalone="no"?>
<!DOCTYPE svg PUBLIC "-//W3C//DTD SVG 20010904//EN"
 "http://www.w3.org/TR/2001/REC-SVG-20010904/DTD/svg10.dtd">
<svg version="1.0" xmlns="http://www.w3.org/2000/svg"
 width="887.000000pt" height="887.000000pt" viewBox="0 0 887.000000 887.000000"
 preserveAspectRatio="xMidYMid meet">
<metadata>
Created by potrace 1.11, written by Peter Selinger 2001-2013
</metadata>
<g transform="translate(0.000000,887.000000) scale(0.100000,-0.100000)"
fill="#000000" stroke="none">
<path d="M5031 7172 c-21 -18 -141 -247 -141 -269 0 -7 -4 -21 -9 -31 -6 -9
-27 -62 -47 -117 -20 -55 -45 -119 -55 -142 -11 -23 -19 -46 -19 -51 0 -5 -9
-19 -20 -32 -11 -13 -20 -33 -20 -45 0 -25 -74 -231 -90 -250 -7 -9 -7 -21 0
-39 9 -26 11 -26 111 -26 56 0 99 -4 97 -9 -1 -5 -31 -34 -66 -65 -335 -298
-509 -756 -489 -1285 5 -128 13 -180 41 -267 6 -19 0 -22 -76 -37 -46 -9 -129
-18 -186 -21 -92 -4 -111 -8 -176 -39 -83 -39 -138 -83 -134 -106 1 -9 -6 -28
-15 -43 -10 -14 -18 -37 -19 -50 -1 -30 -57 -220 -69 -232 -11 -13 -12 -41 0
-64 5 -9 14 -29 20 -44 8 -22 17 -28 41 -28 19 0 30 -5 30 -14 0 -8 15 -17 37
-21 33 -6 40 -3 60 20 20 23 23 37 22 113 0 93 3 127 14 138 4 4 7 16 7 26 0
10 16 36 35 57 27 29 34 45 30 63 -7 31 14 55 55 63 32 6 35 4 36 -20 3 -36 9
-40 38 -21 32 21 65 20 88 -1 12 -11 42 -18 81 -21 34 -2 67 -8 72 -12 15 -11
115 -33 122 -26 7 6 73 -31 86 -48 4 -6 6 -29 3 -51 -3 -25 0 -47 9 -58 8 -11
11 -33 8 -56 -4 -31 -1 -41 16 -53 18 -13 21 -22 15 -55 -9 -60 36 -133 82
-133 39 0 58 56 85 258 12 93 12 93 38 87 14 -3 33 -16 41 -28 24 -36 54 -59
91 -71 27 -9 34 -16 33 -36 -1 -14 -7 -103 -14 -199 -6 -96 -9 -205 -5 -242 4
-37 3 -69 -2 -71 -4 -3 -48 -2 -98 2 -49 5 -147 11 -216 15 l-126 7 -6 61
c-21 210 -23 215 -76 185 -42 -25 -138 -42 -241 -42 -102 0 -140 12 -189 60
-28 29 -29 29 -59 5 -18 -13 -24 -27 -23 -57 0 -39 -15 -174 -25 -227 -6 -28
-7 -28 -52 -22 -26 3 -128 1 -227 -6 -99 -6 -198 -12 -220 -13 l-40 -1 1 55
c1 30 13 98 29 150 24 83 50 223 68 368 6 48 1 50 -54 25 -41 -18 -48 -35 -70
-163 -5 -36 -19 -94 -29 -130 -54 -191 -68 -334 -35 -370 37 -41 60 -43 346
-31 149 7 273 11 275 8 2 -2 -1 -30 -6 -63 -6 -32 -10 -95 -10 -139 0 -135
-22 -421 -55 -705 -10 -82 -13 -165 -9 -241 l6 -116 -58 -6 c-33 -3 -83 -11
-112 -17 -51 -11 -55 -15 -77 -62 -16 -34 -21 -57 -16 -76 15 -57 140 -108
240 -99 230 23 231 24 231 127 0 60 3 69 24 83 22 15 24 24 31 134 10 183 32
372 44 387 6 7 16 62 21 122 6 60 12 115 15 122 4 10 23 11 82 6 43 -4 79 -8
81 -9 2 -2 -4 -40 -12 -86 -29 -154 -35 -236 -35 -451 0 -240 0 -250 -2 -315
-3 -60 20 -107 63 -129 47 -24 259 -35 315 -17 79 27 122 127 84 200 -25 49
-34 54 -136 62 l-80 6 1 40 c0 22 6 103 13 180 8 77 15 241 17 365 2 124 5
281 8 350 3 69 1 150 -4 180 -5 30 -11 87 -13 127 l-4 71 37 4 c21 2 53 0 71
-4 19 -4 118 -10 221 -12 l187 -5 6 32 c3 18 1 68 -3 112 -10 89 3 340 22 425
l11 55 44 5 c45 5 57 15 43 37 -7 12 -37 19 -159 39 -27 4 -33 10 -33 29 0 14
11 33 28 45 28 23 28 23 202 5 82 -9 101 -16 111 -43 5 -14 8 -31 5 -39 -4
-10 11 -13 64 -13 40 0 70 4 70 10 0 6 -14 10 -31 10 -17 0 -39 5 -50 10 -24
13 -25 46 -1 58 26 14 259 21 271 9 21 -21 12 -55 -16 -66 -27 -10 -26 -10 7
-5 45 8 52 16 80 94 34 96 110 208 110 161 0 -13 87 -31 133 -28 21 1 41 -1
43 -5 3 -5 20 -8 39 -8 19 0 46 -5 60 -10 37 -14 175 -28 181 -18 3 4 14 2 25
-5 16 -10 21 -9 30 3 9 13 12 12 22 -4 7 -11 22 -30 34 -42 21 -22 34 -63 38
-114 4 -41 4 -42 20 -37 19 8 67 -51 113 -140 20 -40 43 -73 51 -73 9 0 11 6
6 18 -4 9 -11 28 -15 42 -10 33 -41 88 -105 185 -29 44 -55 89 -57 100 -4 26
26 31 57 11 32 -21 101 -148 110 -200 3 -22 12 -50 20 -60 13 -17 18 -18 37
-8 17 9 33 10 58 2 49 -14 70 -13 70 5 0 9 -19 24 -42 34 -54 23 -91 62 -86
91 l3 22 27 -22 c15 -11 50 -25 77 -29 44 -7 64 -17 116 -55 7 -5 20 -6 30 -2
17 6 17 7 0 26 -10 12 -13 20 -7 20 18 0 14 49 -7 108 -21 58 -79 135 -114
153 -75 39 -137 88 -163 128 -20 33 -45 54 -83 74 -59 29 -99 34 -150 16 -18
-6 -35 -9 -38 -6 -3 4 16 30 42 59 66 74 101 127 145 221 48 103 80 231 80
318 l0 67 65 7 c39 4 74 14 88 25 13 10 42 26 65 36 53 20 59 41 44 149 -14
106 -27 133 -67 141 -75 14 -983 -16 -1227 -40 -184 -18 -193 -27 -189 -175 4
-172 13 -176 299 -167 114 3 286 7 382 7 l175 1 -1 -63 c-1 -51 -7 -77 -34
-129 -148 -293 -399 -461 -732 -489 -310 -26 -561 68 -655 246 -205 385 10
950 440 1158 172 83 176 83 697 74 223 -4 226 -4 277 -31 62 -33 111 -35 170
-9 66 31 72 66 43 254 -19 116 -29 157 -46 176 -22 26 -3 23 -314 47 -112 8
-130 15 -130 52 0 15 -14 77 -30 137 -17 61 -39 153 -50 205 -34 162 -70 266
-103 300 -60 61 -82 42 -196 -170 -46 -85 -87 -157 -91 -160 -3 -3 -21 -50
-39 -105 -49 -145 -113 -283 -122 -259 -23 63 -52 187 -69 304 -23 152 -38
227 -51 252 -5 10 -9 25 -9 34 0 8 -21 55 -47 104 -51 98 -79 121 -112 92z
m662 -654 l5 -118 -58 0 -59 0 20 48 c12 26 27 61 34 77 7 17 17 44 21 60 6
28 24 59 29 53 1 -2 5 -56 8 -120z m-632 -31 c4 -67 10 -138 14 -157 6 -33 5
-36 -27 -48 -19 -6 -60 -27 -91 -46 -54 -33 -57 -33 -57 -14 0 20 104 290 120
313 4 6 11 27 14 49 12 63 21 31 27 -97z m1458 -2046 c26 -18 39 -41 24 -41
-5 0 -33 16 -63 36 -53 35 -54 36 -20 29 19 -4 46 -14 59 -24z m65 -120 c-2
-3 -12 3 -22 13 -16 17 -16 18 5 5 12 -7 20 -15 17 -18z m84 -38 c49 -28 144
-105 137 -111 -7 -7 -66 30 -113 71 -27 23 -57 47 -68 54 -38 24 -1 12 44 -14z
m-59 -63 c12 0 51 -22 87 -49 36 -28 71 -52 77 -54 7 -2 9 -8 5 -12 -14 -15
-72 16 -114 60 -23 25 -51 45 -61 45 -19 0 -73 48 -73 64 0 5 13 -6 29 -23 16
-17 39 -31 50 -31z m251 -162 c0 -5 -4 -8 -10 -8 -5 0 -10 10 -10 23 0 18 2
19 10 7 5 -8 10 -18 10 -22z m-2646 -487 c41 -9 83 -66 91 -123 7 -45 5 -50
-23 -76 -22 -21 -28 -32 -20 -40 15 -15 2 -42 -20 -42 -24 0 -72 -37 -72 -56
0 -8 -4 -14 -10 -14 -5 0 -10 -16 -10 -35 0 -24 6 -37 19 -45 24 -12 36 3 16
20 -23 19 -18 49 9 60 14 5 59 12 100 16 66 6 76 5 76 -10 0 -9 -17 -24 -37
-33 -33 -16 -38 -23 -41 -56 -4 -45 -26 -62 -95 -72 -47 -6 -49 -5 -93 38 -37
38 -44 50 -44 83 1 47 15 75 54 105 27 21 27 23 10 36 -10 7 -26 13 -36 13
-27 0 -33 27 -30 138 l3 102 62 -1 c34 -1 75 -4 91 -8z"/>
<path d="M4142 3517 c-5 -7 -12 -38 -16 -69 -5 -51 -4 -57 14 -63 43 -14 97
45 81 87 -15 40 -62 66 -79 45z"/>
<path d="M3425 7146 c-12 -8 -19 -50 -30 -176 -8 -91 -20 -199 -26 -240 -6
-41 -14 -134 -17 -207 -4 -72 -9 -134 -12 -137 -3 -3 -30 1 -60 10 -30 8 -94
17 -142 21 -98 7 -103 12 -86 85 5 24 15 90 21 148 10 84 15 104 27 101 8 -3
52 -6 98 -9 82 -4 118 6 109 32 -6 17 9 114 27 181 23 81 24 131 4 152 -16 15
-21 15 -83 -1 -55 -16 -74 -17 -128 -7 -34 7 -120 11 -192 9 -71 -1 -182 1
-246 6 -156 12 -163 10 -177 -56 -6 -29 -12 -89 -14 -133 -3 -75 -1 -80 21
-92 14 -6 58 -15 98 -18 58 -6 73 -11 73 -24 -1 -61 -23 -225 -35 -268 l-16
-53 -112 2 c-86 1 -121 -3 -149 -15 -23 -11 -72 -18 -135 -20 -101 -4 -141
-16 -160 -46 -7 -11 -13 -157 -18 -412 -6 -377 -9 -422 -66 -1029 -56 -592
-59 -637 -45 -668 9 -18 27 -37 40 -43 l25 -12 -20 -27 c-23 -30 -35 -95 -25
-134 5 -19 17 -28 48 -38 40 -12 41 -11 68 20 22 26 32 32 52 27 20 -5 30 0
53 30 26 35 30 37 69 30 77 -13 110 -11 114 7 2 10 -8 23 -25 32 -15 8 -25 15
-21 16 18 1 197 -32 243 -44 55 -15 181 -46 187 -46 1 0 4 17 6 37 4 55 15 61
64 32 42 -24 47 -24 298 -25 169 -1 265 -6 285 -14 28 -11 31 -9 58 24 16 20
35 36 42 36 8 0 18 6 22 13 4 6 51 44 103 84 297 224 489 510 546 810 24 128
15 362 -19 498 -67 263 -187 468 -345 587 l-34 25 14 56 c21 82 11 89 -112 80
l-93 -6 6 24 c3 13 9 43 13 65 6 41 7 42 53 47 25 4 68 12 96 20 l50 14 12 64
c7 35 15 75 19 88 l5 25 19 -29 c10 -16 35 -39 55 -50 l35 -22 -25 -34 c-23
-31 -37 -59 -82 -158 -18 -40 -13 -109 10 -145 20 -30 152 -65 184 -47 23 12
53 69 53 99 0 11 24 72 52 136 l53 115 92 3 92 3 12 -60 c33 -174 38 -204 39
-247 0 -43 2 -47 29 -53 28 -6 123 18 149 38 15 12 15 100 -1 234 l-13 103 33
11 c41 13 63 44 63 88 0 44 -42 91 -81 91 -25 0 -28 4 -39 65 -7 36 -28 97
-46 136 -19 39 -34 79 -34 90 0 28 -26 75 -52 93 -48 34 -139 4 -178 -59 -12
-19 -27 -38 -33 -42 -7 -5 -16 -15 -22 -24 -5 -9 -39 -54 -74 -100 -35 -46
-71 -99 -80 -118 l-16 -33 -91 7 c-83 6 -93 5 -105 -12 -15 -21 -74 -39 -154
-47 -27 -3 -60 -8 -72 -12 -30 -8 -30 9 1 112 l23 79 84 12 c46 6 109 14 139
18 30 4 62 11 71 16 15 7 49 124 49 167 0 41 -18 44 -289 47 -184 2 -264 0
-276 -9z m959 -288 c3 -13 6 -49 6 -80 l0 -58 -60 0 c-35 0 -60 4 -60 10 0 19
53 115 73 133 26 22 33 22 41 -5z m-1514 -838 c352 -11 421 -24 608 -116 98
-48 128 -69 192 -133 84 -83 120 -146 145 -253 59 -255 -3 -510 -174 -716 -77
-94 -281 -218 -413 -251 -103 -27 -428 -45 -652 -38 -98 3 -180 8 -183 11 -3
2 20 321 51 708 31 387 56 719 56 739 0 19 5 40 12 47 14 14 -14 14 358 2z"/>
<path d="M5900 4076 c0 -9 7 -16 16 -16 17 0 14 22 -4 28 -7 2 -12 -3 -12 -12z"/>
<path d="M4120 4060 c0 -13 5 -18 15 -14 8 4 15 12 15 20 0 8 -7 14 -15 14 -8
0 -15 -9 -15 -20z"/>
<path d="M6176 4073 c-11 -11 -6 -23 9 -23 8 0 15 4 15 9 0 13 -16 22 -24 14z"/>
<path d="M4341 4057 c-12 -15 -5 -27 16 -27 7 0 13 9 13 20 0 23 -13 26 -29 7z"/>
<path d="M5528 4063 c7 -3 16 -2 19 1 4 3 -2 6 -13 5 -11 0 -14 -3 -6 -6z"/>
<path d="M4205 4017 c-16 -25 -35 -81 -35 -105 0 -8 9 -12 22 -10 31 4 70 65
66 103 -4 38 -31 45 -53 12z"/>
<path d="M2440 3964 c-9 -10 -10 -18 -2 -26 12 -12 32 -2 32 17 0 21 -16 26
-30 9z"/>
<path d="M2206 3951 c-3 -5 1 -14 9 -21 13 -10 15 -9 15 9 0 21 -14 28 -24 12z"/>
<path d="M6005 3900 c-3 -5 -22 -10 -41 -10 -47 0 -43 -28 8 -53 34 -16 42
-17 85 -5 61 17 69 42 19 63 -41 17 -62 19 -71 5z"/>
<path d="M4073 3874 c-3 -10 4 -26 20 -42 22 -21 38 -27 89 -30 74 -4 121 10
116 36 -3 13 -17 18 -73 23 -39 3 -83 11 -98 18 -38 15 -46 14 -54 -5z"/>
<path d="M2230 3772 c0 -30 33 -52 88 -59 71 -8 104 2 100 30 -4 31 -44 47
-120 47 -59 0 -68 -2 -68 -18z"/>
<path d="M2634 3711 c-8 -20 -33 -42 -82 -70 -58 -35 -86 -45 -164 -56 -110
-17 -184 -19 -193 -5 -3 6 -19 10 -34 10 -27 0 -28 -2 -34 -62 -3 -35 -4 -65
-2 -67 11 -11 135 25 174 50 38 25 96 40 141 37 21 -1 163 42 175 53 5 5 19 9
32 9 20 0 23 5 23 43 0 47 -9 87 -19 87 -4 0 -12 -13 -17 -29z"/>
<path d="M5958 3539 c-3 -50 -11 -96 -17 -102 -24 -24 -12 -46 30 -57 39 -11
40 -12 24 -30 -10 -11 -19 -38 -22 -62 -4 -36 0 -48 24 -77 37 -45 63 -53 123
-40 56 12 63 19 64 63 1 25 8 34 36 47 55 26 46 45 -20 41 -63 -3 -130 -19
-130 -30 0 -5 7 -17 15 -28 20 -27 18 -36 -7 -32 -34 5 -35 48 -2 97 15 23 34
41 43 41 10 0 26 7 37 15 16 13 17 16 4 25 -8 5 -18 11 -21 12 -4 2 -2 26 4
53 19 94 -35 155 -136 155 l-44 0 -5 -91z m117 51 c17 -33 20 -112 5 -139 -5
-10 -23 -24 -40 -31 -43 -18 -53 -5 -41 51 6 24 11 61 11 81 0 20 3 43 6 52
10 26 42 18 59 -14z"/>
<path d="M2655 3514 c-11 -3 -48 -12 -82 -20 l-62 -16 6 -64 c5 -50 2 -69 -11
-89 -15 -22 -15 -26 -1 -31 26 -10 17 -32 -18 -43 -23 -8 -41 -24 -55 -50 -23
-40 -21 -65 4 -75 17 -7 18 -2 2 23 -25 40 9 59 122 64 49 3 51 -24 4 -46 -29
-14 -35 -22 -30 -40 7 -29 -3 -43 -37 -56 -57 -22 -92 -14 -131 29 -20 22 -36
47 -36 55 0 25 26 79 45 95 17 14 14 16 -41 25 l-59 11 3 58 c4 65 12 64 -93
23 l-60 -23 -8 -203 c-6 -138 -5 -207 2 -214 16 -16 123 -18 141 -2 12 10 58
13 217 12 182 -1 206 1 238 19 l37 19 -7 65 c-4 36 -13 101 -20 145 -8 44 -17
110 -21 148 -6 62 -9 67 -30 67 -21 0 -24 5 -24 41 0 32 4 42 20 46 18 5 30
35 13 32 -5 -1 -17 -3 -28 -5z"/>
<path d="M2376 3418 c-17 -64 8 -108 42 -74 21 20 7 96 -18 96 -10 0 -20 -10
-24 -22z"/>
<path d="M5661 2952 c-5 -9 -16 -78 -26 -152 -15 -127 -29 -191 -47 -216 -4
-5 -14 -50 -23 -100 -8 -49 -22 -107 -29 -129 -14 -40 -14 -40 -87 -52 -41 -7
-84 -17 -97 -23 -43 -19 -55 -99 -24 -159 28 -56 66 -64 265 -56 206 9 197 2
208 169 4 61 10 118 13 126 3 8 10 78 16 155 11 153 36 378 45 410 6 19 3 20
-52 15 -32 -3 -65 -2 -73 1 -58 25 -80 27 -89 11z"/>
<path d="M6206 2962 c-3 -5 -10 -39 -16 -77 -6 -38 -13 -71 -15 -75 -6 -10
-33 -242 -40 -352 l-7 -98 -70 0 c-66 0 -162 -23 -174 -41 -3 -5 -10 -37 -15
-71 -13 -77 -2 -105 54 -145 40 -28 48 -30 148 -32 96 -2 283 20 298 35 3 3 7
59 8 125 1 112 0 121 -21 142 -23 22 -23 23 -10 122 7 55 21 147 30 205 9 58
17 135 18 172 1 86 -11 97 -111 98 -39 0 -74 -4 -77 -8z"/>
<path d="M2649 2252 c-35 -3 -37 -5 -42 -49 -4 -35 0 -55 17 -87 l22 -41 94 3
c102 4 191 24 211 48 12 15 11 21 -24 80 -32 55 -34 56 -141 52 -56 -2 -117
-4 -137 -6z"/>
<path d="M2248 2223 c-9 -2 -20 -13 -23 -24 -4 -10 -18 -22 -33 -25 -15 -3
-44 -12 -64 -20 -23 -8 -38 -10 -38 -4 0 16 -27 11 -34 -6 -3 -9 -6 -35 -6
-59 0 -55 21 -70 89 -61 25 4 82 9 126 12 44 3 86 11 93 16 15 13 16 82 1 109
-5 11 -20 24 -32 29 -12 6 -31 16 -42 23 -11 8 -28 12 -37 10z"/>
</g>
</svg>
